<?xml version="1.0" encoding="UTF-8" standalone="no"?>
<!DOCTYPE svg PUBLIC "-//W3C//DTD SVG 20010904//EN"
              "http://www.w3.org/TR/2001/REC-SVG-20010904/DTD/svg10.dtd">

<svg xmlns="http://www.w3.org/2000/svg"
     width="0.853333in" height="0.853333in"
     viewBox="0 0 256 256">
  <path id="Selection"
        fill="none" stroke="black" stroke-width="1"
        d="M 214.00,108.00
           C 214.00,108.00 227.00,108.00 227.00,108.00
             231.23,108.01 233.83,107.97 238.00,109.17
             246.42,111.59 252.85,118.01 253.00,127.00
             253.19,138.89 249.40,143.69 244.25,154.00
             244.25,154.00 228.25,186.00 228.25,186.00
             228.25,186.00 215.25,212.00 215.25,212.00
             213.48,215.54 211.12,221.14 207.90,223.40
             205.23,225.27 202.09,224.99 199.00,225.00
             199.00,225.00 49.00,225.00 49.00,225.00
             49.00,225.00 20.00,225.00 20.00,225.00
             12.95,224.91 6.93,223.18 4.01,216.00
             2.85,213.15 3.00,210.02 3.00,207.00
             3.00,207.00 3.00,72.00 3.00,72.00
             3.00,72.00 3.00,48.00 3.00,48.00
             3.01,44.54 2.81,41.20 4.45,38.02
             6.43,34.17 9.94,31.96 14.00,30.79
             17.07,29.90 19.85,30.00 23.00,30.00
             23.00,30.00 75.00,30.00 75.00,30.00
             80.23,30.07 84.72,30.83 88.83,34.39
             94.88,39.65 102.65,56.00 109.01,58.40
             110.90,59.11 113.95,59.00 116.00,59.00
             116.00,59.00 193.00,59.00 193.00,59.00
             206.80,59.02 213.93,63.35 214.00,78.00
             214.00,78.00 214.00,108.00 214.00,108.00 Z
           M 198.00,76.00
           C 198.00,76.00 114.00,76.00 114.00,76.00
             106.58,75.99 100.81,75.55 95.32,69.82
             91.08,65.38 81.42,49.07 77.82,47.02
             75.66,45.79 72.44,46.00 70.00,46.00
             70.00,46.00 18.00,46.00 18.00,46.00
             18.00,46.00 18.00,139.00 18.00,139.00
             18.00,139.00 18.00,166.00 18.00,166.00
             18.00,166.00 19.00,180.00 19.00,180.00
             19.00,180.00 38.75,138.00 38.75,138.00
             44.20,127.02 46.95,114.11 60.00,109.61
             64.26,108.14 68.56,108.01 73.00,108.00
             73.00,108.00 198.00,108.00 198.00,108.00
             198.00,108.00 198.00,76.00 198.00,76.00 Z
           M 24.00,209.00
           C 24.00,209.00 190.00,209.00 190.00,209.00
             199.84,208.98 198.45,208.59 206.25,193.00
             206.25,193.00 228.25,149.00 228.25,149.00
             230.10,145.29 236.65,133.42 236.64,130.02
             236.63,124.45 230.93,125.01 227.00,125.00
             227.00,125.00 71.00,125.00 71.00,125.00
             68.63,125.00 65.28,124.80 63.21,126.02
             60.27,127.76 55.56,139.33 53.76,143.00
             53.76,143.00 33.53,187.00 33.53,187.00
             30.59,193.38 25.22,202.49 24.00,209.00 Z" />
</svg>
