<?xml version="1.0" encoding="UTF-8" standalone="no"?>
<!DOCTYPE svg PUBLIC "-//W3C//DTD SVG 20010904//EN"
              "http://www.w3.org/TR/2001/REC-SVG-20010904/DTD/svg10.dtd">

<svg xmlns="http://www.w3.org/2000/svg"
     width="0.853333in" height="0.853333in"
     viewBox="0 0 256 256">
  <path id="Selection #1"
        fill="none" stroke="black" stroke-width="1"
        d="M 75.00,189.00
           C 75.00,189.00 89.86,158.00 89.86,158.00
             89.86,158.00 96.63,146.99 96.63,146.99
             96.63,146.99 105.00,146.00 105.00,146.00
             105.00,146.00 100.00,157.00 100.00,157.00
             103.12,156.24 110.68,154.83 112.83,157.74
             114.69,159.84 113.54,163.79 112.83,166.00
             112.83,166.00 105.25,181.00 105.25,181.00
             104.16,183.17 102.68,186.66 100.61,187.98
             98.55,189.29 94.45,189.00 92.00,189.00
             92.00,189.00 103.00,165.00 103.00,165.00
             93.71,166.89 92.59,172.33 88.75,180.00
             87.59,182.33 85.78,186.59 83.61,187.98
             81.55,189.29 77.45,189.00 75.00,189.00 Z
           M 136.00,195.00
           C 138.34,189.60 143.20,185.33 147.17,180.96
             147.17,180.96 169.00,158.00 169.00,158.00
             180.95,146.00 178.12,146.01 189.00,146.00
             186.37,151.57 181.25,155.92 177.00,160.34
             177.00,160.34 154.96,184.00 154.96,184.00
             146.82,192.46 146.99,194.99 136.00,195.00 Z
           M 62.00,172.00
           C 63.38,174.07 67.54,179.92 68.01,181.99
             68.91,185.89 63.77,189.97 60.09,189.18
             57.01,188.51 49.20,177.20 49.08,174.09
             48.96,171.15 51.86,169.56 54.02,168.20
             54.02,168.20 70.00,158.80 70.00,158.80
             71.92,157.66 75.51,155.30 77.77,155.52
             80.48,155.77 81.02,158.72 79.93,160.80
             78.68,163.19 73.41,165.97 71.00,167.40
             67.30,169.59 65.94,170.29 62.00,172.00 Z
           M 196.00,173.00
           C 194.63,170.81 190.45,165.04 189.99,163.01
             189.08,159.11 194.24,155.03 197.91,155.82
             201.16,156.52 208.80,167.65 208.92,170.91
             209.03,173.85 206.14,175.44 203.98,176.80
             203.98,176.80 188.00,186.20 188.00,186.20
             186.08,187.34 182.49,189.70 180.23,189.48
             177.52,189.23 176.98,186.28 178.07,184.20
             179.32,181.81 184.59,179.03 187.00,177.60
             190.70,175.41 192.06,174.71 196.00,173.00 Z
           M 138.00,180.03
           C 135.80,187.45 132.73,189.79 125.00,189.99
             121.04,190.09 115.58,190.50 113.17,186.66
             110.56,182.48 113.47,174.31 116.02,170.61
             126.18,155.88 132.91,156.00 149.00,156.00
             148.35,158.71 146.86,163.40 144.37,164.97
             141.33,166.89 137.97,163.45 132.04,166.56
             128.59,168.36 120.22,176.79 126.22,180.03
             129.11,181.65 134.67,180.27 138.00,180.03 Z" />
</svg>
